<svg width="207" height="44" viewBox="0 0 207 44" fill="none" xmlns="http://www.w3.org/2000/svg">
<path d="M53.7385 7.86H54.8485V1.02H53.7385V0.88H59.4585V2.61H59.3485C59.2618 2.35 59.1685 2.12333 59.0685 1.93C58.9685 1.73 58.8485 1.56333 58.7085 1.43C58.5685 1.29 58.4018 1.18667 58.2085 1.12C58.0151 1.05333 57.7818 1.02 57.5085 1.02H55.8485V4.26H56.4985C56.7185 4.26 56.9051 4.24 57.0585 4.2C57.2118 4.16 57.3418 4.08667 57.4485 3.98C57.5618 3.86667 57.6551 3.71667 57.7285 3.53C57.8085 3.33667 57.8851 3.09 57.9585 2.79H58.0685V5.9H57.9585C57.9118 5.70667 57.8618 5.52 57.8085 5.34C57.7618 5.16 57.6918 5 57.5985 4.86C57.5118 4.72 57.3918 4.61 57.2385 4.53C57.0918 4.44333 56.8985 4.4 56.6585 4.4H55.8485V7.86H56.9585V8H53.7385V7.86ZM60.4384 7.86H61.5484V1.02H60.4384V0.88H63.6584V1.02H62.5484V7.86H63.6584V8H60.4384V7.86ZM64.1954 7.86H65.3054V1.02H64.1954V0.88H66.3354L69.7154 6.33H69.7354V1.02H68.6254V0.88H70.9954V1.02H69.8854V8.14H69.6854L65.4754 1.43H65.4554V7.86H66.5654V8H64.1954V7.86ZM73.6121 7.86C73.7255 7.87333 73.8555 7.88333 74.0021 7.89C74.1555 7.89667 74.3221 7.9 74.5021 7.9C74.7288 7.9 74.9521 7.89 75.1721 7.87C75.3988 7.84333 75.6121 7.79333 75.8121 7.72C76.0188 7.64 76.2088 7.53 76.3821 7.39C76.5621 7.24333 76.7221 7.05333 76.8621 6.82C77.0755 6.46 77.2221 6.09333 77.3021 5.72C77.3888 5.34 77.4321 4.92667 77.4321 4.48C77.4321 3.95333 77.3821 3.47667 77.2821 3.05C77.1821 2.61667 77.0155 2.25 76.7821 1.95C76.5555 1.64333 76.2521 1.40667 75.8721 1.24C75.4921 1.07333 75.0221 0.99 74.4621 0.99C74.2955 0.99 74.1421 0.993333 74.0021 1C73.8688 1.00667 73.7388 1.01333 73.6121 1.02V7.86ZM71.5021 7.86H72.6121V1.02H71.5021V0.88H73.3621C73.4555 0.88 73.5488 0.88 73.6421 0.88C73.7355 0.873333 73.8288 0.866666 73.9221 0.86C74.0155 0.86 74.1088 0.86 74.2021 0.86C74.2955 0.853333 74.3888 0.85 74.4821 0.85C74.6821 0.85 74.8588 0.853333 75.0121 0.86C75.1721 0.866666 75.3188 0.879999 75.4521 0.9C75.5921 0.913333 75.7221 0.936667 75.8421 0.97C75.9688 0.996666 76.1021 1.03333 76.2421 1.08C76.6488 1.21333 76.9988 1.39333 77.2921 1.62C77.5921 1.84 77.8355 2.09667 78.0221 2.39C78.2155 2.68333 78.3555 3.00333 78.4421 3.35C78.5355 3.69667 78.5821 4.06 78.5821 4.44C78.5821 4.88 78.5288 5.27667 78.4221 5.63C78.3155 5.97667 78.1688 6.28667 77.9821 6.56C77.7955 6.82667 77.5755 7.06 77.3221 7.26C77.0755 7.45333 76.8088 7.61 76.5221 7.73C76.3621 7.80333 76.2088 7.86 76.0621 7.9C75.9221 7.94 75.7755 7.97 75.6221 7.99C75.4755 8.01 75.3121 8.02333 75.1321 8.03C74.9521 8.03667 74.7455 8.04 74.5121 8.04C74.4121 8.04 74.3055 8.03667 74.1921 8.03C74.0788 8.03 73.9655 8.02667 73.8521 8.02C73.7388 8.01333 73.6255 8.00667 73.5121 8C73.4055 8 73.3021 8 73.2021 8H71.5021V7.86ZM83.0512 7.86H84.1612V1.02H83.5812C83.4479 1.02 83.2979 1.03333 83.1312 1.06C82.9645 1.08 82.7945 1.14333 82.6212 1.25C82.4545 1.35667 82.2912 1.52667 82.1312 1.76C81.9779 1.98667 81.8445 2.30333 81.7312 2.71H81.6212V0.88H87.7012V2.71H87.5912C87.4779 2.30333 87.3412 1.98667 87.1812 1.76C87.0279 1.52667 86.8645 1.35667 86.6912 1.25C86.5245 1.14333 86.3579 1.08 86.1912 1.06C86.0245 1.03333 85.8745 1.02 85.7412 1.02H85.1612V7.86H86.2712V8H83.0512V7.86ZM88.3771 7.86H89.4871V1.02H88.3771V0.88H91.5971V1.02H90.4871V4.29H93.8171V1.02H92.7071V0.88H95.9271V1.02H94.8171V7.86H95.9271V8H92.7071V7.86H93.8171V4.43H90.4871V7.86H91.5971V8H88.3771V7.86ZM96.5314 7.86H97.6414V1.02H96.5314V0.88H102.251V2.61H102.141C102.055 2.35 101.961 2.12333 101.861 1.93C101.761 1.73 101.641 1.56333 101.501 1.43C101.361 1.29 101.195 1.18667 101.001 1.12C100.808 1.05333 100.575 1.02 100.301 1.02H98.6414V4.11H99.2914C99.5114 4.11 99.6981 4.09 99.8514 4.05C100.005 4.01 100.135 3.93667 100.241 3.83C100.355 3.71667 100.448 3.56667 100.521 3.38C100.601 3.18667 100.678 2.94 100.751 2.64H100.861V5.75H100.751C100.705 5.55667 100.655 5.37 100.601 5.19C100.555 5.01 100.485 4.85 100.391 4.71C100.305 4.57 100.185 4.46 100.031 4.38C99.8848 4.29333 99.6914 4.25 99.4514 4.25H98.6414V7.86H100.531C100.898 7.86 101.201 7.78333 101.441 7.63C101.688 7.47 101.888 7.28333 102.041 7.07C102.195 6.85 102.308 6.62333 102.381 6.39C102.455 6.15667 102.501 5.96333 102.521 5.81H102.631V8H96.5314V7.86ZM108.466 4.42C108.599 4.44667 108.739 4.46667 108.886 4.48C109.032 4.49333 109.162 4.5 109.276 4.5C109.769 4.5 110.152 4.35667 110.426 4.07C110.706 3.77667 110.846 3.33667 110.846 2.75C110.846 2.41 110.812 2.12667 110.746 1.9C110.679 1.67333 110.572 1.49333 110.426 1.36C110.286 1.22 110.099 1.12333 109.866 1.07C109.639 1.01667 109.366 0.99 109.046 0.99C108.919 0.99 108.802 0.993333 108.696 1C108.596 1.00667 108.519 1.01333 108.466 1.02V4.42ZM106.356 7.86H107.466V1.02H106.356V0.88H108.236C108.329 0.88 108.422 0.88 108.516 0.88C108.609 0.873333 108.702 0.866666 108.796 0.86C108.889 0.86 108.979 0.86 109.066 0.86C109.159 0.853333 109.252 0.85 109.346 0.85C109.726 0.85 110.076 0.896666 110.396 0.99C110.722 1.07667 111.002 1.20333 111.236 1.37C111.476 1.53667 111.662 1.73667 111.796 1.97C111.929 2.20333 111.996 2.46333 111.996 2.75C111.996 3.05 111.919 3.31667 111.766 3.55C111.612 3.78333 111.409 3.98 111.156 4.14C110.902 4.3 110.606 4.42333 110.266 4.51C109.932 4.59667 109.582 4.64 109.216 4.64C109.122 4.64 109.002 4.63333 108.856 4.62C108.709 4.6 108.579 4.58 108.466 4.56V7.86H109.576V8H106.356V7.86ZM112.84 7.86H113.95V1.02H112.84V0.88H118.56V2.61H118.45C118.363 2.35 118.27 2.12333 118.17 1.93C118.07 1.73 117.95 1.56333 117.81 1.43C117.67 1.29 117.503 1.18667 117.31 1.12C117.117 1.05333 116.883 1.02 116.61 1.02H114.95V4.11H115.6C115.82 4.11 116.007 4.09 116.16 4.05C116.313 4.01 116.443 3.93667 116.55 3.83C116.663 3.71667 116.757 3.56667 116.83 3.38C116.91 3.18667 116.987 2.94 117.06 2.64H117.17V5.75H117.06C117.013 5.55667 116.963 5.37 116.91 5.19C116.863 5.01 116.793 4.85 116.7 4.71C116.613 4.57 116.493 4.46 116.34 4.38C116.193 4.29333 116 4.25 115.76 4.25H114.95V7.86H116.84C117.207 7.86 117.51 7.78333 117.75 7.63C117.997 7.47 118.197 7.28333 118.35 7.07C118.503 6.85 118.617 6.62333 118.69 6.39C118.763 6.15667 118.81 5.96333 118.83 5.81H118.94V8H112.84V7.86ZM121.991 4.11H122.911C123.098 4.11 123.268 4.08667 123.421 4.04C123.574 3.99333 123.704 3.91333 123.811 3.8C123.924 3.68 124.011 3.52 124.071 3.32C124.131 3.12 124.161 2.86667 124.161 2.56C124.161 2.21333 124.114 1.93667 124.021 1.73C123.934 1.51667 123.818 1.35667 123.671 1.25C123.531 1.14333 123.371 1.07333 123.191 1.04C123.018 1.00667 122.844 0.99 122.671 0.99C122.551 0.99 122.428 0.993333 122.301 1C122.181 1 122.078 1.00667 121.991 1.02V4.11ZM119.881 7.86H120.991V1.02H119.881V0.88H121.781C121.861 0.88 121.941 0.88 122.021 0.88C122.101 0.873333 122.181 0.866666 122.261 0.86C122.341 0.86 122.421 0.86 122.501 0.86C122.581 0.853333 122.661 0.85 122.741 0.85C123.134 0.85 123.481 0.873333 123.781 0.92C124.081 0.96 124.361 1.08333 124.621 1.29C124.854 1.47 125.018 1.67333 125.111 1.9C125.211 2.12667 125.261 2.34 125.261 2.54C125.261 2.64 125.241 2.77 125.201 2.93C125.168 3.08333 125.088 3.24333 124.961 3.41C124.841 3.57 124.664 3.72 124.431 3.86C124.198 3.99333 123.888 4.08333 123.501 4.13V4.15C123.608 4.16333 123.751 4.19 123.931 4.23C124.118 4.26333 124.304 4.32333 124.491 4.41C124.684 4.49667 124.861 4.61333 125.021 4.76C125.181 4.9 125.294 5.08333 125.361 5.31C125.401 5.44333 125.428 5.59667 125.441 5.77C125.461 5.93667 125.474 6.11 125.481 6.29C125.494 6.47 125.504 6.64333 125.511 6.81C125.524 6.97667 125.544 7.11667 125.571 7.23C125.611 7.40333 125.674 7.56 125.761 7.7C125.848 7.84 125.988 7.91 126.181 7.91C126.268 7.91 126.358 7.89333 126.451 7.86C126.544 7.82667 126.628 7.77333 126.701 7.7L126.791 7.81C126.758 7.83667 126.718 7.86667 126.671 7.9C126.631 7.92667 126.578 7.95333 126.511 7.98C126.444 8.00667 126.361 8.02667 126.261 8.04C126.168 8.06 126.051 8.07 125.911 8.07C125.644 8.07 125.421 8.03667 125.241 7.97C125.068 7.90333 124.928 7.80667 124.821 7.68C124.714 7.54667 124.634 7.38667 124.581 7.2C124.534 7.00667 124.501 6.78333 124.481 6.53L124.411 5.62C124.384 5.28667 124.318 5.02667 124.211 4.84C124.104 4.65333 123.978 4.51667 123.831 4.43C123.691 4.34333 123.544 4.29333 123.391 4.28C123.238 4.26 123.104 4.25 122.991 4.25H121.991V7.86H123.101V8H119.881V7.86ZM127.098 7.86H128.208V1.02H127.098V0.88H132.818V2.61H132.708C132.621 2.35 132.528 2.12333 132.428 1.93C132.328 1.73 132.208 1.56333 132.068 1.43C131.928 1.29 131.761 1.18667 131.568 1.12C131.375 1.05333 131.141 1.02 130.868 1.02H129.208V4.26H129.858C130.078 4.26 130.265 4.24 130.418 4.2C130.571 4.16 130.701 4.08667 130.808 3.98C130.921 3.86667 131.015 3.71667 131.088 3.53C131.168 3.33667 131.245 3.09 131.318 2.79H131.428V5.9H131.318C131.271 5.70667 131.221 5.52 131.168 5.34C131.121 5.16 131.051 5 130.958 4.86C130.871 4.72 130.751 4.61 130.598 4.53C130.451 4.44333 130.258 4.4 130.018 4.4H129.208V7.86H130.318V8H127.098V7.86ZM133.768 7.86H134.878V1.02H133.768V0.88H139.488V2.61H139.378C139.291 2.35 139.198 2.12333 139.098 1.93C138.998 1.73 138.878 1.56333 138.738 1.43C138.598 1.29 138.431 1.18667 138.238 1.12C138.044 1.05333 137.811 1.02 137.538 1.02H135.878V4.11H136.528C136.748 4.11 136.934 4.09 137.088 4.05C137.241 4.01 137.371 3.93667 137.478 3.83C137.591 3.71667 137.684 3.56667 137.758 3.38C137.838 3.18667 137.914 2.94 137.988 2.64H138.098V5.75H137.988C137.941 5.55667 137.891 5.37 137.838 5.19C137.791 5.01 137.721 4.85 137.628 4.71C137.541 4.57 137.421 4.46 137.268 4.38C137.121 4.29333 136.928 4.25 136.688 4.25H135.878V7.86H137.768C138.134 7.86 138.438 7.78333 138.678 7.63C138.924 7.47 139.124 7.28333 139.278 7.07C139.431 6.85 139.544 6.62333 139.618 6.39C139.691 6.15667 139.738 5.96333 139.758 5.81H139.868V8H133.768V7.86ZM147.219 8H147.069C147.022 7.94667 146.969 7.9 146.909 7.86C146.849 7.81333 146.755 7.79 146.629 7.79C146.529 7.79 146.419 7.81 146.299 7.85C146.185 7.88333 146.052 7.92333 145.899 7.97C145.752 8.01667 145.585 8.05667 145.399 8.09C145.212 8.13 145.005 8.15 144.779 8.15C144.359 8.15 143.949 8.07333 143.549 7.92C143.155 7.76667 142.782 7.51667 142.429 7.17C142.102 6.84333 141.829 6.45667 141.609 6.01C141.389 5.56333 141.279 5.04667 141.279 4.46C141.279 3.96 141.369 3.48333 141.549 3.03C141.729 2.57667 141.979 2.17667 142.299 1.83C142.619 1.48333 142.995 1.21 143.429 1.01C143.862 0.803333 144.335 0.7 144.849 0.7C145.055 0.7 145.239 0.72 145.399 0.76C145.559 0.8 145.702 0.846666 145.829 0.9C145.955 0.946666 146.072 0.99 146.179 1.03C146.285 1.07 146.389 1.09 146.489 1.09C146.622 1.09 146.715 1.07 146.769 1.03C146.829 0.983333 146.882 0.933333 146.929 0.88H147.079V2.88H146.969C146.909 2.62667 146.832 2.37667 146.739 2.13C146.645 1.88333 146.515 1.66667 146.349 1.48C146.182 1.28667 145.969 1.13333 145.709 1.02C145.455 0.9 145.139 0.84 144.759 0.84C144.405 0.84 144.102 0.896666 143.849 1.01C143.595 1.11667 143.382 1.26333 143.209 1.45C143.035 1.63 142.895 1.84333 142.789 2.09C142.689 2.33 142.612 2.58667 142.559 2.86C142.505 3.12667 142.469 3.4 142.449 3.68C142.435 3.95333 142.429 4.21333 142.429 4.46C142.429 5.16 142.485 5.74 142.599 6.2C142.712 6.66 142.869 7.02333 143.069 7.29C143.275 7.55667 143.522 7.74333 143.809 7.85C144.095 7.95667 144.412 8.01 144.759 8.01C145.205 8.01 145.565 7.94667 145.839 7.82C146.112 7.69333 146.332 7.53 146.499 7.33C146.665 7.12333 146.792 6.89333 146.879 6.64C146.965 6.38 147.042 6.12333 147.109 5.87H147.219V8ZM149.536 7.86H150.646V1.02H150.066C149.932 1.02 149.782 1.03333 149.616 1.06C149.449 1.08 149.279 1.14333 149.106 1.25C148.939 1.35667 148.776 1.52667 148.616 1.76C148.462 1.98667 148.329 2.30333 148.216 2.71H148.106V0.88H154.186V2.71H154.076C153.962 2.30333 153.826 1.98667 153.666 1.76C153.512 1.52667 153.349 1.35667 153.176 1.25C153.009 1.14333 152.842 1.08 152.676 1.06C152.509 1.03333 152.359 1.02 152.226 1.02H151.646V7.86H152.756V8H149.536V7.86ZM0.86625 42.552H4.41825V20.664H0.86625V20.216H19.1703V25.752H18.8183C18.5409 24.92 18.2423 24.1947 17.9223 23.576C17.6023 22.936 17.2183 22.4027 16.7703 21.976C16.3223 21.528 15.7889 21.1973 15.1703 20.984C14.5516 20.7707 13.8049 20.664 12.9303 20.664H7.61825V31.032H9.69825C10.4023 31.032 10.9996 30.968 11.4903 30.84C11.9809 30.712 12.3969 30.4773 12.7383 30.136C13.1009 29.7733 13.3996 29.2933 13.6343 28.696C13.8903 28.0773 14.1356 27.288 14.3703 26.328H14.7223V36.28H14.3703C14.2209 35.6613 14.0609 35.064 13.8903 34.488C13.7409 33.912 13.5169 33.4 13.2183 32.952C12.9409 32.504 12.5569 32.152 12.0663 31.896C11.5969 31.6187 10.9783 31.48 10.2103 31.48H7.61825V42.552H11.1703V43H0.86625V42.552ZM28.962 30.552H31.906C32.5033 30.552 33.0473 30.4773 33.538 30.328C34.0287 30.1787 34.4447 29.9227 34.786 29.56C35.1487 29.176 35.426 28.664 35.618 28.024C35.81 27.384 35.906 26.5733 35.906 25.592C35.906 24.4827 35.7567 23.5973 35.458 22.936C35.1807 22.2533 34.8073 21.7413 34.338 21.4C33.89 21.0587 33.378 20.8347 32.802 20.728C32.2473 20.6213 31.6927 20.568 31.138 20.568C30.754 20.568 30.3593 20.5787 29.954 20.6C29.57 20.6 29.2393 20.6213 28.962 20.664V30.552ZM22.21 42.552H25.762V20.664H22.21V20.216H28.29C28.546 20.216 28.802 20.216 29.058 20.216C29.314 20.1947 29.57 20.1733 29.826 20.152C30.082 20.152 30.338 20.152 30.594 20.152C30.85 20.1307 31.106 20.12 31.362 20.12C32.6207 20.12 33.73 20.1947 34.69 20.344C35.65 20.472 36.546 20.8667 37.378 21.528C38.1247 22.104 38.6473 22.7547 38.946 23.48C39.266 24.2053 39.426 24.888 39.426 25.528C39.426 25.848 39.362 26.264 39.234 26.776C39.1273 27.2667 38.8713 27.7787 38.466 28.312C38.082 28.824 37.5167 29.304 36.77 29.752C36.0233 30.1787 35.0313 30.4667 33.794 30.616V30.68C34.1353 30.7227 34.594 30.808 35.17 30.936C35.7673 31.0427 36.3647 31.2347 36.962 31.512C37.5807 31.7893 38.146 32.1627 38.658 32.632C39.17 33.08 39.5327 33.6667 39.746 34.392C39.874 34.8187 39.9593 35.3093 40.002 35.864C40.066 36.3973 40.1087 36.952 40.13 37.528C40.1727 38.104 40.2047 38.6587 40.226 39.192C40.2687 39.7253 40.3327 40.1733 40.418 40.536C40.546 41.0907 40.7487 41.592 41.026 42.04C41.3033 42.488 41.7513 42.712 42.37 42.712C42.6473 42.712 42.9353 42.6587 43.234 42.552C43.5327 42.4453 43.7993 42.2747 44.034 42.04L44.322 42.392C44.2153 42.4773 44.0873 42.5733 43.938 42.68C43.81 42.7653 43.6393 42.8507 43.426 42.936C43.2127 43.0213 42.946 43.0853 42.626 43.128C42.3273 43.192 41.954 43.224 41.506 43.224C40.6527 43.224 39.938 43.1173 39.362 42.904C38.8073 42.6907 38.3593 42.3813 38.018 41.976C37.6767 41.5493 37.4207 41.0373 37.25 40.44C37.1007 39.8213 36.994 39.1067 36.93 38.296L36.706 35.384C36.6207 34.3173 36.4073 33.4853 36.066 32.888C35.7247 32.2907 35.3193 31.8533 34.85 31.576C34.402 31.2987 33.9327 31.1387 33.442 31.096C32.9513 31.032 32.5247 31 32.162 31H28.962V42.552H32.514V43H22.21V42.552ZM54.7118 23.896L51.1918 33.208H58.2318L54.7118 23.896ZM44.3117 42.552H47.1278L55.7678 19.64H56.5358L65.2398 42.552H68.0878V43H58.2318V42.552H61.7838L58.4238 33.656H50.9998L47.6398 42.552H51.1918V43H44.3117V42.552ZM91.8618 34.84H89.3018V42.104H88.9178C88.6831 41.8693 88.4911 41.7093 88.3418 41.624C88.1924 41.5387 87.9578 41.496 87.6378 41.496C87.2538 41.496 86.8591 41.6027 86.4538 41.816C86.0698 42.008 85.6111 42.232 85.0778 42.488C84.5658 42.744 83.9578 42.968 83.2537 43.16C82.5498 43.3733 81.6964 43.48 80.6938 43.48C79.1791 43.48 77.8351 43.2347 76.6618 42.744C75.4884 42.232 74.3578 41.432 73.2698 40.344C72.2031 39.2773 71.3178 38.0187 70.6138 36.568C69.9098 35.1173 69.5578 33.4853 69.5578 31.672C69.5578 30.456 69.6964 29.368 69.9738 28.408C70.2511 27.4267 70.5818 26.5733 70.9658 25.848C71.3711 25.1227 71.7764 24.5147 72.1818 24.024C72.6084 23.5333 72.9604 23.1493 73.2378 22.872C74.1978 21.912 75.2964 21.1333 76.5338 20.536C77.7711 19.9387 79.1791 19.64 80.7578 19.64C81.5684 19.64 82.2298 19.704 82.7418 19.832C83.2751 19.96 83.7338 20.1093 84.1178 20.28C84.5018 20.4293 84.8431 20.568 85.1418 20.696C85.4618 20.824 85.8138 20.888 86.1978 20.888C86.6244 20.888 86.9231 20.8347 87.0938 20.728C87.2858 20.6 87.4671 20.4293 87.6378 20.216H88.1178V26.616H87.7658C87.6804 26.0613 87.5098 25.4107 87.2538 24.664C87.0191 23.9173 86.6351 23.2027 86.1018 22.52C85.5898 21.8373 84.8964 21.2613 84.0218 20.792C83.1684 20.3227 82.0698 20.088 80.7258 20.088C79.1258 20.088 77.8351 20.4293 76.8538 21.112C75.8938 21.7733 75.1364 22.6587 74.5818 23.768C74.0484 24.856 73.6858 26.0933 73.4938 27.48C73.3231 28.8667 73.2378 30.264 73.2378 31.672C73.2378 32.632 73.2804 33.592 73.3658 34.552C73.4511 35.512 73.5898 36.4187 73.7818 37.272C73.9951 38.1253 74.2831 38.9147 74.6458 39.64C75.0084 40.3653 75.4778 40.984 76.0538 41.496C76.6938 42.072 77.3551 42.4773 78.0378 42.712C78.7204 42.9253 79.6058 43.032 80.6938 43.032C81.3551 43.032 82.0164 42.9253 82.6778 42.712C83.3391 42.4773 83.9258 42.136 84.4378 41.688C84.9711 41.24 85.3978 40.6747 85.7178 39.992C86.0591 39.288 86.2298 38.4667 86.2298 37.528V34.84H82.1018V34.392H91.8618V34.84ZM100.275 30.552H103.219C103.816 30.552 104.36 30.4773 104.851 30.328C105.341 30.1787 105.757 29.9227 106.099 29.56C106.461 29.176 106.739 28.664 106.931 28.024C107.123 27.384 107.219 26.5733 107.219 25.592C107.219 24.4827 107.069 23.5973 106.771 22.936C106.493 22.2533 106.12 21.7413 105.651 21.4C105.203 21.0587 104.691 20.8347 104.115 20.728C103.56 20.6213 103.005 20.568 102.451 20.568C102.067 20.568 101.672 20.5787 101.267 20.6C100.883 20.6 100.552 20.6213 100.275 20.664V30.552ZM93.5225 42.552H97.0745V20.664H93.5225V20.216H99.6025C99.8585 20.216 100.115 20.216 100.371 20.216C100.627 20.1947 100.883 20.1733 101.139 20.152C101.395 20.152 101.651 20.152 101.907 20.152C102.163 20.1307 102.419 20.12 102.675 20.12C103.933 20.12 105.043 20.1947 106.003 20.344C106.963 20.472 107.859 20.8667 108.691 21.528C109.437 22.104 109.96 22.7547 110.259 23.48C110.579 24.2053 110.739 24.888 110.739 25.528C110.739 25.848 110.675 26.264 110.547 26.776C110.44 27.2667 110.184 27.7787 109.779 28.312C109.395 28.824 108.829 29.304 108.083 29.752C107.336 30.1787 106.344 30.4667 105.107 30.616V30.68C105.448 30.7227 105.907 30.808 106.483 30.936C107.08 31.0427 107.677 31.2347 108.275 31.512C108.893 31.7893 109.459 32.1627 109.971 32.632C110.483 33.08 110.845 33.6667 111.059 34.392C111.187 34.8187 111.272 35.3093 111.315 35.864C111.379 36.3973 111.421 36.952 111.443 37.528C111.485 38.104 111.517 38.6587 111.539 39.192C111.581 39.7253 111.645 40.1733 111.731 40.536C111.859 41.0907 112.061 41.592 112.339 42.04C112.616 42.488 113.064 42.712 113.683 42.712C113.96 42.712 114.248 42.6587 114.547 42.552C114.845 42.4453 115.112 42.2747 115.347 42.04L115.635 42.392C115.528 42.4773 115.4 42.5733 115.251 42.68C115.123 42.7653 114.952 42.8507 114.739 42.936C114.525 43.0213 114.259 43.0853 113.939 43.128C113.64 43.192 113.267 43.224 112.819 43.224C111.965 43.224 111.251 43.1173 110.675 42.904C110.12 42.6907 109.672 42.3813 109.331 41.976C108.989 41.5493 108.733 41.0373 108.562 40.44C108.413 39.8213 108.307 39.1067 108.243 38.296L108.019 35.384C107.933 34.3173 107.72 33.4853 107.379 32.888C107.037 32.2907 106.632 31.8533 106.163 31.576C105.715 31.2987 105.245 31.1387 104.755 31.096C104.264 31.032 103.837 31 103.475 31H100.275V42.552H103.827V43H93.5225V42.552ZM126.024 23.896L122.504 33.208H129.544L126.024 23.896ZM115.624 42.552H118.44L127.08 19.64H127.848L136.552 42.552H139.4V43H129.544V42.552H133.096L129.736 33.656H122.312L118.952 42.552H122.504V43H115.624V42.552ZM140.047 42.552H143.599V20.664H140.047V20.216H146.895L157.711 37.656H157.775V20.664H154.223V20.216H161.807V20.664H158.255V43.448H157.615L144.143 21.976H144.079V42.552H147.631V43H140.047V42.552ZM183.941 43H183.461C183.311 42.8293 183.141 42.68 182.949 42.552C182.757 42.4027 182.458 42.328 182.053 42.328C181.733 42.328 181.381 42.392 180.997 42.52C180.634 42.6267 180.207 42.7547 179.717 42.904C179.247 43.0533 178.714 43.1813 178.117 43.288C177.519 43.416 176.858 43.48 176.133 43.48C174.789 43.48 173.477 43.2347 172.197 42.744C170.938 42.2533 169.743 41.4533 168.613 40.344C167.567 39.2987 166.693 38.0613 165.989 36.632C165.285 35.2027 164.933 33.5493 164.933 31.672C164.933 30.072 165.221 28.5467 165.797 27.096C166.373 25.6453 167.173 24.3653 168.197 23.256C169.221 22.1467 170.426 21.272 171.813 20.632C173.199 19.9707 174.714 19.64 176.357 19.64C177.018 19.64 177.605 19.704 178.117 19.832C178.629 19.96 179.087 20.1093 179.493 20.28C179.898 20.4293 180.271 20.568 180.613 20.696C180.954 20.824 181.285 20.888 181.605 20.888C182.031 20.888 182.33 20.824 182.501 20.696C182.693 20.5467 182.863 20.3867 183.013 20.216H183.493V26.616H183.141C182.949 25.8053 182.703 25.0053 182.405 24.216C182.106 23.4267 181.69 22.7333 181.157 22.136C180.623 21.5173 179.941 21.0267 179.109 20.664C178.298 20.28 177.285 20.088 176.069 20.088C174.938 20.088 173.967 20.2693 173.157 20.632C172.346 20.9733 171.663 21.4427 171.109 22.04C170.554 22.616 170.106 23.2987 169.765 24.088C169.445 24.856 169.199 25.6773 169.029 26.552C168.858 27.4053 168.741 28.28 168.677 29.176C168.634 30.0507 168.613 30.8827 168.613 31.672C168.613 33.912 168.794 35.768 169.157 37.24C169.519 38.712 170.021 39.8747 170.661 40.728C171.322 41.5813 172.111 42.1787 173.029 42.52C173.946 42.8613 174.959 43.032 176.069 43.032C177.498 43.032 178.65 42.8293 179.525 42.424C180.399 42.0187 181.103 41.496 181.637 40.856C182.17 40.1947 182.575 39.4587 182.853 38.648C183.13 37.816 183.375 36.9947 183.589 36.184H183.941V43ZM186.523 42.552H190.075V20.664H186.523V20.216H204.827V25.752H204.475C204.197 24.92 203.899 24.1947 203.579 23.576C203.259 22.936 202.875 22.4027 202.427 21.976C201.979 21.528 201.445 21.1973 200.827 20.984C200.208 20.7707 199.461 20.664 198.587 20.664H193.275V30.552H195.355C196.059 30.552 196.656 30.488 197.147 30.36C197.637 30.232 198.053 29.9973 198.395 29.656C198.757 29.2933 199.056 28.8133 199.291 28.216C199.547 27.5973 199.792 26.808 200.027 25.848H200.379V35.8H200.027C199.877 35.1813 199.717 34.584 199.547 34.008C199.397 33.432 199.173 32.92 198.875 32.472C198.597 32.024 198.213 31.672 197.723 31.416C197.253 31.1387 196.635 31 195.867 31H193.275V42.552H199.323C200.496 42.552 201.467 42.3067 202.235 41.816C203.024 41.304 203.664 40.7067 204.155 40.024C204.645 39.32 205.008 38.5947 205.243 37.848C205.477 37.1013 205.627 36.4827 205.691 35.992H206.043V43H186.523V42.552Z" fill="black"/>
</svg>
