<svg width="571" height="61" viewBox="0 0 571 61" fill="none" xmlns="http://www.w3.org/2000/svg">
<path d="M135.01 1.216V1.664H137.954V23.552H135.01V24H141.41V23.552H138.466V1.664H138.53L146.434 24H146.946L154.818 1.664H154.882V23.552H151.97V24H162.466V23.552H159.522V1.664H162.466V1.216H154.466L148.834 17.152H148.77L143.234 1.216H135.01ZM170.107 12.672C170.107 10.9867 170.182 9.44 170.331 8.032C170.48 6.624 170.79 5.408 171.259 4.384C171.728 3.36 172.411 2.57067 173.307 2.016C174.203 1.44 175.398 1.152 176.891 1.152C178.491 1.152 179.739 1.46133 180.635 2.08C181.552 2.67733 182.235 3.49867 182.683 4.544C183.131 5.568 183.398 6.76267 183.483 8.128C183.59 9.472 183.643 10.8907 183.643 12.384C183.643 14.048 183.579 15.5947 183.451 17.024C183.344 18.432 183.067 19.6587 182.619 20.704C182.171 21.728 181.499 22.5387 180.603 23.136C179.707 23.712 178.47 24 176.891 24C175.696 24 174.662 23.8293 173.787 23.488C172.934 23.1467 172.23 22.5493 171.675 21.696C171.142 20.8213 170.747 19.6587 170.491 18.208C170.235 16.736 170.107 14.8907 170.107 12.672ZM164.891 12.672C164.891 14.336 165.222 15.8827 165.883 17.312C166.544 18.7413 167.419 19.9893 168.507 21.056C169.616 22.1013 170.896 22.9333 172.347 23.552C173.798 24.1493 175.312 24.448 176.891 24.448C178.491 24.448 180.006 24.1387 181.435 23.52C182.886 22.88 184.155 22.016 185.243 20.928C186.352 19.84 187.227 18.5813 187.867 17.152C188.528 15.7013 188.859 14.176 188.859 12.576C188.859 10.7413 188.507 9.09867 187.803 7.648C187.12 6.176 186.214 4.928 185.083 3.904C183.974 2.88 182.694 2.09067 181.243 1.536C179.814 0.981332 178.363 0.703999 176.891 0.703999C175.526 0.703999 174.128 0.991999 172.699 1.568C171.27 2.12267 169.979 2.92267 168.827 3.968C167.675 5.01333 166.726 6.272 165.979 7.744C165.254 9.216 164.891 10.8587 164.891 12.672ZM198.907 11.552V1.664C199.142 1.64267 199.376 1.62133 199.611 1.6C199.846 1.57867 200.08 1.568 200.315 1.568C201.126 1.568 201.787 1.67467 202.299 1.888C202.832 2.10133 203.248 2.432 203.547 2.88C203.846 3.30667 204.059 3.86133 204.187 4.544C204.315 5.20533 204.379 6.00533 204.379 6.944C204.379 7.52 204.336 8.08533 204.251 8.64C204.187 9.19467 204.016 9.696 203.739 10.144C203.462 10.5707 203.046 10.912 202.491 11.168C201.936 11.424 201.179 11.552 200.219 11.552H198.907ZM194.267 1.664V23.552H191.323V24H201.851V23.552H198.907V12H201.019C202.022 12 202.8 12.192 203.355 12.576C203.91 12.96 204.326 13.472 204.603 14.112C204.88 14.752 205.051 15.488 205.115 16.32C205.2 17.1307 205.264 17.9733 205.307 18.848C205.328 19.424 205.371 20.0427 205.435 20.704C205.52 21.344 205.723 21.9413 206.043 22.496C206.363 23.0507 206.854 23.52 207.515 23.904C208.176 24.2667 209.094 24.448 210.267 24.448C210.843 24.448 211.323 24.4053 211.707 24.32C212.091 24.256 212.411 24.16 212.667 24.032C212.944 23.904 213.179 23.7547 213.371 23.584C213.584 23.392 213.798 23.1893 214.011 22.976L213.691 22.688C213.478 22.9013 213.232 23.136 212.955 23.392C212.678 23.6267 212.326 23.744 211.899 23.744C211.515 23.744 211.216 23.6693 211.003 23.52C210.811 23.3707 210.651 23.072 210.523 22.624C210.416 22.176 210.331 21.5467 210.267 20.736C210.203 19.9253 210.118 18.848 210.011 17.504C209.926 16.352 209.702 15.4347 209.339 14.752C208.998 14.0693 208.528 13.536 207.931 13.152C207.334 12.768 206.619 12.48 205.787 12.288C204.976 12.096 204.048 11.904 203.003 11.712V11.552C203.728 11.488 204.464 11.36 205.211 11.168C205.958 10.9547 206.63 10.656 207.227 10.272C207.846 9.888 208.347 9.39733 208.731 8.8C209.115 8.18133 209.307 7.44533 209.307 6.592C209.307 5.52533 209.051 4.64 208.539 3.936C208.048 3.232 207.419 2.67733 206.651 2.272C205.883 1.84533 205.03 1.54667 204.091 1.376C203.174 1.20533 202.299 1.12 201.467 1.12C200.571 1.12 199.686 1.14133 198.811 1.184C197.936 1.20533 197.051 1.216 196.155 1.216H191.323V1.664H194.267ZM214.481 1.216V1.664H217.425V23.552H214.481V24H234.929V16.992H234.513C234.3 17.9093 233.99 18.7733 233.585 19.584C233.18 20.3733 232.668 21.0667 232.049 21.664C231.452 22.2613 230.758 22.7307 229.969 23.072C229.18 23.392 228.294 23.552 227.313 23.552H222.065V12H224.209C224.956 12 225.574 12.128 226.065 12.384C226.577 12.64 227.004 12.992 227.345 13.44C227.686 13.8667 227.953 14.368 228.145 14.944C228.358 15.52 228.54 16.1173 228.689 16.736H229.105V6.784H228.689C228.54 7.50933 228.348 8.17067 228.113 8.768C227.878 9.344 227.58 9.84533 227.217 10.272C226.854 10.6773 226.396 10.9973 225.841 11.232C225.308 11.4453 224.646 11.552 223.857 11.552H222.065V1.664H227.153C228.198 1.664 229.084 1.86667 229.809 2.272C230.534 2.656 231.121 3.11467 231.569 3.648C232.038 4.18133 232.401 4.736 232.657 5.312C232.913 5.86667 233.094 6.32533 233.201 6.688H233.617V1.216H214.481ZM246.417 1.216V1.664H249.361V23.552H246.417V24H256.945V23.552H254.001V12.608H263.249V23.552H260.305V24H270.833V23.552H267.889V1.664H270.833V1.216H260.305V1.664H263.249V12.16H254.001V1.664H256.945V1.216H246.417ZM281.649 5.792L285.425 14.528H278.065L281.649 5.792ZM271.153 23.552V24H277.201V23.552H274.353L277.905 14.976H285.585L289.297 23.552H286.321V24H297.073V23.552H294.321L284.241 0.32H283.377L273.841 23.552H271.153ZM304.906 12.704V1.664C305.077 1.64267 305.269 1.62133 305.482 1.6C305.696 1.57867 305.92 1.568 306.154 1.568C308.01 1.568 309.29 2.05867 309.994 3.04C310.698 4.02133 311.05 5.44 311.05 7.296C311.05 9.25867 310.645 10.656 309.834 11.488C309.024 12.2987 307.712 12.704 305.898 12.704H304.906ZM304.906 23.552V13.152H306.218C307.925 13.152 309.408 12.992 310.666 12.672C311.925 12.352 312.97 11.9253 313.802 11.392C314.634 10.8373 315.253 10.1973 315.658 9.472C316.064 8.72533 316.266 7.936 316.266 7.104C316.266 5.86667 315.946 4.864 315.306 4.096C314.688 3.30667 313.909 2.69867 312.97 2.272C312.032 1.824 311.008 1.52533 309.898 1.376C308.789 1.20533 307.754 1.12 306.794 1.12C305.706 1.12 304.618 1.14133 303.53 1.184C302.442 1.20533 301.354 1.216 300.266 1.216H297.322V1.664H300.266V23.552H297.322V24H307.85V23.552H304.906ZM325.656 12.704V1.664C325.827 1.64267 326.019 1.62133 326.232 1.6C326.446 1.57867 326.67 1.568 326.904 1.568C328.76 1.568 330.04 2.05867 330.744 3.04C331.448 4.02133 331.8 5.44 331.8 7.296C331.8 9.25867 331.395 10.656 330.584 11.488C329.774 12.2987 328.462 12.704 326.648 12.704H325.656ZM325.656 23.552V13.152H326.968C328.675 13.152 330.158 12.992 331.416 12.672C332.675 12.352 333.72 11.9253 334.552 11.392C335.384 10.8373 336.003 10.1973 336.408 9.472C336.814 8.72533 337.016 7.936 337.016 7.104C337.016 5.86667 336.696 4.864 336.056 4.096C335.438 3.30667 334.659 2.69867 333.72 2.272C332.782 1.824 331.758 1.52533 330.648 1.376C329.539 1.20533 328.504 1.12 327.544 1.12C326.456 1.12 325.368 1.14133 324.28 1.184C323.192 1.20533 322.104 1.216 321.016 1.216H318.072V1.664H321.016V23.552H318.072V24H328.6V23.552H325.656ZM338.982 1.216V1.664H341.926V23.552H338.982V24H349.51V23.552H346.566V1.664H349.51V1.216H338.982ZM351.854 1.216V1.664H354.798V23.552H351.854V24H358.254V23.552H355.31V3.488H355.374L369.774 24H370.638V1.664H373.582V1.216H367.182V1.664H370.126V16.448H370.062L359.406 1.216H351.854ZM375.668 1.216V1.664H378.612V23.552H375.668V24H396.116V16.992H395.7C395.487 17.9093 395.178 18.7733 394.772 19.584C394.367 20.3733 393.855 21.0667 393.236 21.664C392.639 22.2613 391.946 22.7307 391.156 23.072C390.367 23.392 389.482 23.552 388.5 23.552H383.252V12H385.396C386.143 12 386.762 12.128 387.252 12.384C387.764 12.64 388.191 12.992 388.532 13.44C388.874 13.8667 389.14 14.368 389.332 14.944C389.546 15.52 389.727 16.1173 389.876 16.736H390.292V6.784H389.876C389.727 7.50933 389.535 8.17067 389.3 8.768C389.066 9.344 388.767 9.84533 388.404 10.272C388.042 10.6773 387.583 10.9973 387.028 11.232C386.495 11.4453 385.834 11.552 385.044 11.552H383.252V1.664H388.34C389.386 1.664 390.271 1.86667 390.996 2.272C391.722 2.656 392.308 3.11467 392.756 3.648C393.226 4.18133 393.588 4.736 393.844 5.312C394.1 5.86667 394.282 6.32533 394.388 6.688H394.804V1.216H375.668ZM399.594 16.896V24H400.106C400.213 23.7013 400.33 23.5093 400.458 23.424C400.586 23.3173 400.799 23.264 401.098 23.264C401.311 23.264 401.631 23.328 402.058 23.456C402.506 23.584 403.007 23.7227 403.562 23.872C404.138 24 404.746 24.128 405.386 24.256C406.047 24.384 406.709 24.448 407.37 24.448C408.693 24.448 409.887 24.2453 410.954 23.84C412.042 23.4133 412.97 22.848 413.738 22.144C414.527 21.44 415.135 20.6187 415.562 19.68C415.989 18.7413 416.202 17.7493 416.202 16.704C416.202 15.6373 415.999 14.7413 415.594 14.016C415.21 13.2907 414.698 12.672 414.058 12.16C413.418 11.648 412.682 11.232 411.85 10.912C411.039 10.5707 410.197 10.2613 409.322 9.984C408.469 9.70667 407.626 9.44 406.794 9.184C405.983 8.928 405.258 8.62933 404.618 8.288C403.978 7.92533 403.455 7.49867 403.05 7.008C402.666 6.51733 402.474 5.89867 402.474 5.152C402.474 4.66133 402.591 4.18133 402.826 3.712C403.061 3.24267 403.402 2.816 403.85 2.432C404.298 2.048 404.842 1.73867 405.482 1.504C406.143 1.26933 406.901 1.152 407.754 1.152C408.799 1.152 409.663 1.33333 410.346 1.696C411.029 2.05867 411.594 2.53867 412.042 3.136C412.49 3.712 412.853 4.36267 413.13 5.088C413.429 5.81333 413.706 6.54933 413.962 7.296H414.378V1.216H413.866C413.759 1.472 413.653 1.65333 413.546 1.76C413.461 1.84533 413.269 1.888 412.97 1.888C412.714 1.888 412.426 1.824 412.106 1.696C411.807 1.568 411.455 1.44 411.05 1.312C410.645 1.16267 410.175 1.024 409.642 0.895998C409.109 0.767998 408.49 0.703999 407.786 0.703999C406.677 0.703999 405.642 0.895999 404.682 1.28C403.743 1.64267 402.933 2.13333 402.25 2.752C401.567 3.34933 401.034 4.04267 400.65 4.832C400.266 5.62133 400.074 6.44267 400.074 7.296C400.074 8.448 400.255 9.408 400.618 10.176C401.002 10.944 401.503 11.5947 402.122 12.128C402.741 12.64 403.445 13.0667 404.234 13.408C405.023 13.728 405.834 14.016 406.666 14.272C407.498 14.5067 408.309 14.7413 409.098 14.976C409.887 15.2107 410.591 15.4987 411.21 15.84C411.829 16.1813 412.319 16.608 412.682 17.12C413.066 17.632 413.258 18.2827 413.258 19.072C413.258 19.4987 413.173 20 413.002 20.576C412.831 21.1307 412.533 21.664 412.106 22.176C411.701 22.688 411.135 23.1253 410.41 23.488C409.685 23.8293 408.757 24 407.626 24C407.306 24 406.954 24 406.57 24C406.207 23.9787 405.813 23.9147 405.386 23.808C404.981 23.68 404.543 23.488 404.074 23.232C403.626 22.976 403.157 22.6027 402.666 22.112C402.218 21.6853 401.834 21.2267 401.514 20.736C401.215 20.224 400.959 19.7333 400.746 19.264C400.554 18.7733 400.405 18.3253 400.298 17.92C400.191 17.4933 400.117 17.152 400.074 16.896H399.594ZM420.344 16.896V24H420.856C420.963 23.7013 421.08 23.5093 421.208 23.424C421.336 23.3173 421.549 23.264 421.848 23.264C422.061 23.264 422.381 23.328 422.808 23.456C423.256 23.584 423.757 23.7227 424.312 23.872C424.888 24 425.496 24.128 426.136 24.256C426.797 24.384 427.459 24.448 428.12 24.448C429.443 24.448 430.637 24.2453 431.704 23.84C432.792 23.4133 433.72 22.848 434.488 22.144C435.277 21.44 435.885 20.6187 436.312 19.68C436.739 18.7413 436.952 17.7493 436.952 16.704C436.952 15.6373 436.749 14.7413 436.344 14.016C435.96 13.2907 435.448 12.672 434.808 12.16C434.168 11.648 433.432 11.232 432.6 10.912C431.789 10.5707 430.947 10.2613 430.072 9.984C429.219 9.70667 428.376 9.44 427.544 9.184C426.733 8.928 426.008 8.62933 425.368 8.288C424.728 7.92533 424.205 7.49867 423.8 7.008C423.416 6.51733 423.224 5.89867 423.224 5.152C423.224 4.66133 423.341 4.18133 423.576 3.712C423.811 3.24267 424.152 2.816 424.6 2.432C425.048 2.048 425.592 1.73867 426.232 1.504C426.893 1.26933 427.651 1.152 428.504 1.152C429.549 1.152 430.413 1.33333 431.096 1.696C431.779 2.05867 432.344 2.53867 432.792 3.136C433.24 3.712 433.603 4.36267 433.88 5.088C434.179 5.81333 434.456 6.54933 434.712 7.296H435.128V1.216H434.616C434.509 1.472 434.403 1.65333 434.296 1.76C434.211 1.84533 434.019 1.888 433.72 1.888C433.464 1.888 433.176 1.824 432.856 1.696C432.557 1.568 432.205 1.44 431.8 1.312C431.395 1.16267 430.925 1.024 430.392 0.895998C429.859 0.767998 429.24 0.703999 428.536 0.703999C427.427 0.703999 426.392 0.895999 425.432 1.28C424.493 1.64267 423.683 2.13333 423 2.752C422.317 3.34933 421.784 4.04267 421.4 4.832C421.016 5.62133 420.824 6.44267 420.824 7.296C420.824 8.448 421.005 9.408 421.368 10.176C421.752 10.944 422.253 11.5947 422.872 12.128C423.491 12.64 424.195 13.0667 424.984 13.408C425.773 13.728 426.584 14.016 427.416 14.272C428.248 14.5067 429.059 14.7413 429.848 14.976C430.637 15.2107 431.341 15.4987 431.96 15.84C432.579 16.1813 433.069 16.608 433.432 17.12C433.816 17.632 434.008 18.2827 434.008 19.072C434.008 19.4987 433.923 20 433.752 20.576C433.581 21.1307 433.283 21.664 432.856 22.176C432.451 22.688 431.885 23.1253 431.16 23.488C430.435 23.8293 429.507 24 428.376 24C428.056 24 427.704 24 427.32 24C426.957 23.9787 426.563 23.9147 426.136 23.808C425.731 23.68 425.293 23.488 424.824 23.232C424.376 22.976 423.907 22.6027 423.416 22.112C422.968 21.6853 422.584 21.2267 422.264 20.736C421.965 20.224 421.709 19.7333 421.496 19.264C421.304 18.7733 421.155 18.3253 421.048 17.92C420.941 17.4933 420.867 17.152 420.824 16.896H420.344ZM0.523 37.216V37.664H3.147L11.083 60.864H12.011L17.387 45.728H17.451L22.699 60.864H23.627L31.851 37.664H34.443V37.216H28.555V37.664H31.307L25.387 54.56H25.323L19.531 37.664H22.507V37.216H12.939V37.664H14.667L17.163 44.992L13.803 54.528H13.739L7.979 37.664H10.315V37.216H0.523ZM35.3105 37.216V37.664H38.2545V59.552H35.3105V60H45.8385V59.552H42.8945V37.664H45.8385V37.216H35.3105ZM56.0538 37.664V59.552H53.1098V60H63.6378V59.552H60.6938V37.664H61.8458C62.6351 37.664 63.3391 37.7493 63.9578 37.92C64.5764 38.0693 65.1311 38.3467 65.6218 38.752C66.1124 39.136 66.5498 39.68 66.9338 40.384C67.3178 41.088 67.6698 41.984 67.9898 43.072H68.4058V37.216H48.3418V43.072H48.7578C49.0778 41.984 49.4298 41.088 49.8138 40.384C50.1978 39.68 50.6351 39.136 51.1258 38.752C51.6164 38.3467 52.1711 38.0693 52.7898 37.92C53.4084 37.7493 54.1124 37.664 54.9018 37.664H56.0538ZM70.7763 37.216V37.664H73.7203V59.552H70.7763V60H81.3043V59.552H78.3603V48.608H87.6083V59.552H84.6643V60H95.1923V59.552H92.2483V37.664H95.1923V37.216H84.6643V37.664H87.6083V48.16H78.3603V37.664H81.3043V37.216H70.7763ZM104.867 37.216V37.664H107.491L115.427 60.864H116.355L121.731 45.728H121.795L127.043 60.864H127.971L136.195 37.664H138.787V37.216H132.899V37.664H135.651L129.731 54.56H129.667L123.875 37.664H126.851V37.216H117.283V37.664H119.011L121.507 44.992L118.147 54.528H118.083L112.323 37.664H114.659V37.216H104.867ZM139.59 37.216V37.664H142.534V59.552H139.59V60H160.038V52.992H159.622C159.409 53.9093 159.1 54.7733 158.694 55.584C158.289 56.3733 157.777 57.0667 157.158 57.664C156.561 58.2613 155.868 58.7307 155.078 59.072C154.289 59.392 153.404 59.552 152.422 59.552H147.174V48H149.318C150.065 48 150.684 48.128 151.174 48.384C151.686 48.64 152.113 48.992 152.454 49.44C152.796 49.8667 153.062 50.368 153.254 50.944C153.468 51.52 153.649 52.1173 153.798 52.736H154.214V42.784H153.798C153.649 43.5093 153.457 44.1707 153.222 44.768C152.988 45.344 152.689 45.8453 152.326 46.272C151.964 46.6773 151.505 46.9973 150.95 47.232C150.417 47.4453 149.756 47.552 148.966 47.552H147.174V37.664H152.262C153.308 37.664 154.193 37.8667 154.918 38.272C155.644 38.656 156.23 39.1147 156.678 39.648C157.148 40.1813 157.51 40.736 157.766 41.312C158.022 41.8667 158.204 42.3253 158.31 42.688H158.726V37.216H139.59ZM171.196 41.792L174.972 50.528H167.612L171.196 41.792ZM160.7 59.552V60H166.748V59.552H163.9L167.452 50.976H175.132L178.844 59.552H175.868V60H186.62V59.552H183.868L173.788 36.32H172.924L163.388 59.552H160.7ZM194.485 47.552V37.664C194.72 37.6427 194.955 37.6213 195.189 37.6C195.424 37.5787 195.659 37.568 195.893 37.568C196.704 37.568 197.365 37.6747 197.877 37.888C198.411 38.1013 198.827 38.432 199.125 38.88C199.424 39.3067 199.637 39.8613 199.765 40.544C199.893 41.2053 199.957 42.0053 199.957 42.944C199.957 43.52 199.915 44.0853 199.829 44.64C199.765 45.1947 199.595 45.696 199.317 46.144C199.04 46.5707 198.624 46.912 198.069 47.168C197.515 47.424 196.757 47.552 195.797 47.552H194.485ZM189.845 37.664V59.552H186.901V60H197.429V59.552H194.485V48H196.597C197.6 48 198.379 48.192 198.933 48.576C199.488 48.96 199.904 49.472 200.181 50.112C200.459 50.752 200.629 51.488 200.693 52.32C200.779 53.1307 200.843 53.9733 200.885 54.848C200.907 55.424 200.949 56.0427 201.013 56.704C201.099 57.344 201.301 57.9413 201.621 58.496C201.941 59.0507 202.432 59.52 203.093 59.904C203.755 60.2667 204.672 60.448 205.845 60.448C206.421 60.448 206.901 60.4053 207.285 60.32C207.669 60.256 207.989 60.16 208.245 60.032C208.523 59.904 208.757 59.7547 208.949 59.584C209.163 59.392 209.376 59.1893 209.589 58.976L209.269 58.688C209.056 58.9013 208.811 59.136 208.533 59.392C208.256 59.6267 207.904 59.744 207.477 59.744C207.093 59.744 206.795 59.6693 206.581 59.52C206.389 59.3707 206.229 59.072 206.101 58.624C205.995 58.176 205.909 57.5467 205.845 56.736C205.781 55.9253 205.696 54.848 205.589 53.504C205.504 52.352 205.28 51.4347 204.917 50.752C204.576 50.0693 204.107 49.536 203.509 49.152C202.912 48.768 202.197 48.48 201.365 48.288C200.555 48.096 199.627 47.904 198.581 47.712V47.552C199.307 47.488 200.043 47.36 200.789 47.168C201.536 46.9547 202.208 46.656 202.805 46.272C203.424 45.888 203.925 45.3973 204.309 44.8C204.693 44.1813 204.885 43.4453 204.885 42.592C204.885 41.5253 204.629 40.64 204.117 39.936C203.627 39.232 202.997 38.6773 202.229 38.272C201.461 37.8453 200.608 37.5467 199.669 37.376C198.752 37.2053 197.877 37.12 197.045 37.12C196.149 37.12 195.264 37.1413 194.389 37.184C193.515 37.2053 192.629 37.216 191.733 37.216H186.901V37.664H189.845ZM210.123 37.216V37.664H213.067V59.552H210.123V60H220.651V59.552H217.707V37.664H220.651V37.216H210.123ZM222.994 37.216V37.664H225.938V59.552H222.994V60H229.394V59.552H226.45V39.488H226.514L240.914 60H241.778V37.664H244.722V37.216H238.322V37.664H241.266V52.448H241.202L230.546 37.216H222.994ZM266.553 43.744V37.216H266.009C265.902 37.472 265.785 37.6533 265.657 37.76C265.529 37.8453 265.316 37.888 265.017 37.888C264.74 37.888 264.398 37.824 263.993 37.696C263.588 37.568 263.129 37.44 262.617 37.312C262.105 37.1627 261.55 37.024 260.953 36.896C260.356 36.768 259.737 36.704 259.097 36.704C257.732 36.704 256.334 36.992 254.905 37.568C253.497 38.1227 252.217 38.9227 251.065 39.968C249.913 41.0133 248.964 42.272 248.217 43.744C247.492 45.216 247.129 46.8587 247.129 48.672C247.129 50.336 247.46 51.8827 248.121 53.312C248.782 54.7413 249.657 55.9893 250.745 57.056C251.854 58.1013 253.134 58.9333 254.585 59.552C256.036 60.1493 257.54 60.448 259.097 60.448C260.078 60.448 260.91 60.3413 261.593 60.128C262.297 59.936 262.916 59.7227 263.449 59.488C263.982 59.2533 264.473 59.04 264.921 58.848C265.39 58.6347 265.881 58.528 266.393 58.528C266.649 58.528 266.873 58.592 267.065 58.72C267.278 58.8267 267.406 59.008 267.449 59.264H268.025V51.936H270.105V51.488H260.217V51.936H263.513V53.152C263.513 54.1333 263.47 55.04 263.385 55.872C263.3 56.704 263.097 57.4293 262.777 58.048C262.478 58.6453 262.041 59.1253 261.465 59.488C260.889 59.8293 260.11 60 259.129 60C257.934 60 256.9 59.8293 256.025 59.488C255.172 59.1253 254.468 58.5387 253.913 57.728C253.38 56.9173 252.985 55.8507 252.729 54.528C252.473 53.2053 252.345 51.5733 252.345 49.632V46.848C252.345 45.6533 252.42 44.48 252.569 43.328C252.718 42.1547 253.028 41.12 253.497 40.224C253.988 39.3067 254.681 38.5707 255.577 38.016C256.473 37.44 257.657 37.152 259.129 37.152C260.985 37.1307 262.468 37.7067 263.577 38.88C264.686 40.032 265.518 41.6533 266.073 43.744H266.553ZM288.398 37.664V59.552H285.454V60H295.982V59.552H293.038V37.664H294.19C294.979 37.664 295.683 37.7493 296.302 37.92C296.92 38.0693 297.475 38.3467 297.966 38.752C298.456 39.136 298.894 39.68 299.278 40.384C299.662 41.088 300.014 41.984 300.334 43.072H300.75V37.216H280.686V43.072H281.102C281.422 41.984 281.774 41.088 282.158 40.384C282.542 39.68 282.979 39.136 283.47 38.752C283.96 38.3467 284.515 38.0693 285.134 37.92C285.752 37.7493 286.456 37.664 287.246 37.664H288.398ZM303.12 37.216V37.664H306.064V59.552H303.12V60H313.648V59.552H310.704V48.608H319.952V59.552H317.008V60H327.536V59.552H324.592V37.664H327.536V37.216H317.008V37.664H319.952V48.16H310.704V37.664H313.648V37.216H303.12ZM329.84 37.216V37.664H332.784V59.552H329.84V60H350.288V52.992H349.872C349.659 53.9093 349.35 54.7733 348.944 55.584C348.539 56.3733 348.027 57.0667 347.408 57.664C346.811 58.2613 346.118 58.7307 345.328 59.072C344.539 59.392 343.654 59.552 342.672 59.552H337.424V48H339.568C340.315 48 340.934 48.128 341.424 48.384C341.936 48.64 342.363 48.992 342.704 49.44C343.046 49.8667 343.312 50.368 343.504 50.944C343.718 51.52 343.899 52.1173 344.048 52.736H344.464V42.784H344.048C343.899 43.5093 343.707 44.1707 343.472 44.768C343.238 45.344 342.939 45.8453 342.576 46.272C342.214 46.6773 341.755 46.9973 341.2 47.232C340.667 47.4453 340.006 47.552 339.216 47.552H337.424V37.664H342.512C343.558 37.664 344.443 37.8667 345.168 38.272C345.894 38.656 346.48 39.1147 346.928 39.648C347.398 40.1813 347.76 40.736 348.016 41.312C348.272 41.8667 348.454 42.3253 348.56 42.688H348.976V37.216H329.84ZM364.784 37.664V59.552H361.84V60H372.4V59.552H369.424V48.416H371.568C372.315 48.416 372.934 48.544 373.424 48.8C373.936 49.056 374.363 49.408 374.704 49.856C375.046 50.2827 375.312 50.784 375.504 51.36C375.718 51.936 375.899 52.5333 376.048 53.152H376.464V43.2H376.048C375.899 43.9253 375.707 44.5867 375.472 45.184C375.238 45.76 374.939 46.2613 374.576 46.688C374.214 47.0933 373.755 47.4133 373.2 47.648C372.667 47.8613 372.006 47.968 371.216 47.968H369.424V37.664H374.256C375.11 37.664 375.846 37.7813 376.464 38.016C377.104 38.2507 377.659 38.592 378.128 39.04C378.598 39.4667 379.003 39.9893 379.344 40.608C379.707 41.2267 380.038 41.92 380.336 42.688H380.752V37.216H361.84V37.664H364.784ZM391.267 47.552V37.664C391.501 37.6427 391.736 37.6213 391.97 37.6C392.205 37.5787 392.44 37.568 392.675 37.568C393.485 37.568 394.147 37.6747 394.659 37.888C395.192 38.1013 395.608 38.432 395.907 38.88C396.205 39.3067 396.419 39.8613 396.547 40.544C396.675 41.2053 396.739 42.0053 396.739 42.944C396.739 43.52 396.696 44.0853 396.611 44.64C396.547 45.1947 396.376 45.696 396.099 46.144C395.821 46.5707 395.405 46.912 394.851 47.168C394.296 47.424 393.539 47.552 392.579 47.552H391.267ZM386.627 37.664V59.552H383.683V60H394.211V59.552H391.267V48H393.379C394.381 48 395.16 48.192 395.715 48.576C396.269 48.96 396.685 49.472 396.963 50.112C397.24 50.752 397.411 51.488 397.475 52.32C397.56 53.1307 397.624 53.9733 397.667 54.848C397.688 55.424 397.731 56.0427 397.795 56.704C397.88 57.344 398.083 57.9413 398.403 58.496C398.723 59.0507 399.213 59.52 399.875 59.904C400.536 60.2667 401.453 60.448 402.627 60.448C403.203 60.448 403.683 60.4053 404.067 60.32C404.451 60.256 404.771 60.16 405.027 60.032C405.304 59.904 405.539 59.7547 405.731 59.584C405.944 59.392 406.157 59.1893 406.371 58.976L406.051 58.688C405.837 58.9013 405.592 59.136 405.315 59.392C405.037 59.6267 404.685 59.744 404.259 59.744C403.875 59.744 403.576 59.6693 403.363 59.52C403.171 59.3707 403.011 59.072 402.883 58.624C402.776 58.176 402.691 57.5467 402.627 56.736C402.563 55.9253 402.477 54.848 402.371 53.504C402.285 52.352 402.061 51.4347 401.699 50.752C401.357 50.0693 400.888 49.536 400.291 49.152C399.693 48.768 398.979 48.48 398.147 48.288C397.336 48.096 396.408 47.904 395.363 47.712V47.552C396.088 47.488 396.824 47.36 397.571 47.168C398.317 46.9547 398.989 46.656 399.587 46.272C400.205 45.888 400.707 45.3973 401.091 44.8C401.475 44.1813 401.667 43.4453 401.667 42.592C401.667 41.5253 401.411 40.64 400.899 39.936C400.408 39.232 399.779 38.6773 399.01 38.272C398.243 37.8453 397.389 37.5467 396.451 37.376C395.533 37.2053 394.659 37.12 393.827 37.12C392.931 37.12 392.045 37.1413 391.171 37.184C390.296 37.2053 389.411 37.216 388.515 37.216H383.683V37.664H386.627ZM415.352 41.792L419.128 50.528H411.768L415.352 41.792ZM404.856 59.552V60H410.904V59.552H408.056L411.608 50.976H419.288L423 59.552H420.024V60H430.776V59.552H428.024L417.944 36.32H417.08L407.544 59.552H404.856ZM450.866 43.744V37.216H450.322C450.215 37.472 450.098 37.6533 449.97 37.76C449.842 37.8453 449.628 37.888 449.33 37.888C449.052 37.888 448.711 37.824 448.306 37.696C447.9 37.568 447.442 37.44 446.93 37.312C446.418 37.1627 445.863 37.024 445.266 36.896C444.668 36.768 444.05 36.704 443.41 36.704C442.044 36.704 440.647 36.992 439.218 37.568C437.81 38.1227 436.53 38.9227 435.378 39.968C434.226 41.0133 433.276 42.272 432.53 43.744C431.804 45.216 431.442 46.8587 431.442 48.672C431.442 50.336 431.772 51.8827 432.434 53.312C433.095 54.7413 433.97 55.9893 435.058 57.056C436.167 58.1013 437.447 58.9333 438.898 59.552C440.348 60.1493 441.852 60.448 443.41 60.448C444.391 60.448 445.223 60.3413 445.906 60.128C446.61 59.936 447.228 59.7227 447.762 59.488C448.295 59.2533 448.786 59.04 449.234 58.848C449.703 58.6347 450.194 58.528 450.706 58.528C450.962 58.528 451.186 58.592 451.378 58.72C451.591 58.8267 451.719 59.008 451.762 59.264H452.338V51.936H454.418V51.488H444.53V51.936H447.826V53.152C447.826 54.1333 447.783 55.04 447.698 55.872C447.612 56.704 447.41 57.4293 447.09 58.048C446.791 58.6453 446.354 59.1253 445.778 59.488C445.202 59.8293 444.423 60 443.442 60C442.247 60 441.212 59.8293 440.338 59.488C439.484 59.1253 438.78 58.5387 438.226 57.728C437.692 56.9173 437.298 55.8507 437.042 54.528C436.786 53.2053 436.658 51.5733 436.658 49.632V46.848C436.658 45.6533 436.732 44.48 436.882 43.328C437.031 42.1547 437.34 41.12 437.81 40.224C438.3 39.3067 438.994 38.5707 439.89 38.016C440.786 37.44 441.97 37.152 443.442 37.152C445.298 37.1307 446.78 37.7067 447.89 38.88C448.999 40.032 449.831 41.6533 450.386 43.744H450.866ZM463.548 47.552V37.664C463.782 37.6427 464.017 37.6213 464.252 37.6C464.486 37.5787 464.721 37.568 464.956 37.568C465.766 37.568 466.428 37.6747 466.94 37.888C467.473 38.1013 467.889 38.432 468.188 38.88C468.486 39.3067 468.7 39.8613 468.828 40.544C468.956 41.2053 469.02 42.0053 469.02 42.944C469.02 43.52 468.977 44.0853 468.892 44.64C468.828 45.1947 468.657 45.696 468.38 46.144C468.102 46.5707 467.686 46.912 467.132 47.168C466.577 47.424 465.82 47.552 464.86 47.552H463.548ZM458.908 37.664V59.552H455.964V60H466.492V59.552H463.548V48H465.66C466.662 48 467.441 48.192 467.996 48.576C468.55 48.96 468.966 49.472 469.244 50.112C469.521 50.752 469.692 51.488 469.756 52.32C469.841 53.1307 469.905 53.9733 469.948 54.848C469.969 55.424 470.012 56.0427 470.076 56.704C470.161 57.344 470.364 57.9413 470.684 58.496C471.004 59.0507 471.494 59.52 472.156 59.904C472.817 60.2667 473.734 60.448 474.908 60.448C475.484 60.448 475.964 60.4053 476.348 60.32C476.732 60.256 477.052 60.16 477.308 60.032C477.585 59.904 477.82 59.7547 478.012 59.584C478.225 59.392 478.438 59.1893 478.652 58.976L478.332 58.688C478.118 58.9013 477.873 59.136 477.596 59.392C477.318 59.6267 476.966 59.744 476.54 59.744C476.156 59.744 475.857 59.6693 475.644 59.52C475.452 59.3707 475.292 59.072 475.164 58.624C475.057 58.176 474.972 57.5467 474.908 56.736C474.844 55.9253 474.758 54.848 474.652 53.504C474.566 52.352 474.342 51.4347 473.98 50.752C473.638 50.0693 473.169 49.536 472.572 49.152C471.974 48.768 471.26 48.48 470.428 48.288C469.617 48.096 468.689 47.904 467.644 47.712V47.552C468.369 47.488 469.105 47.36 469.852 47.168C470.598 46.9547 471.27 46.656 471.868 46.272C472.486 45.888 472.988 45.3973 473.372 44.8C473.756 44.1813 473.948 43.4453 473.948 42.592C473.948 41.5253 473.692 40.64 473.18 39.936C472.689 39.232 472.06 38.6773 471.292 38.272C470.524 37.8453 469.67 37.5467 468.732 37.376C467.814 37.2053 466.94 37.12 466.108 37.12C465.212 37.12 464.326 37.1413 463.452 37.184C462.577 37.2053 461.692 37.216 460.796 37.216H455.964V37.664H458.908ZM487.634 41.792L491.41 50.528H484.05L487.634 41.792ZM477.137 59.552V60H483.186V59.552H480.338L483.89 50.976H491.57L495.282 59.552H492.306V60H503.058V59.552H500.306L490.226 36.32H489.362L479.826 59.552H477.137ZM503.307 37.216V37.664H506.251V59.552H503.307V60H509.707V59.552H506.763V39.488H506.827L521.227 60H522.091V37.664H525.035V37.216H518.635V37.664H521.579V52.448H521.515L510.859 37.216H503.307ZM546.962 43.744V37.216H546.45C546.386 37.5147 546.279 37.7067 546.13 37.792C545.98 37.856 545.756 37.888 545.458 37.888C545.18 37.888 544.839 37.824 544.434 37.696C544.028 37.568 543.57 37.44 543.058 37.312C542.567 37.1627 542.023 37.024 541.426 36.896C540.85 36.768 540.22 36.704 539.538 36.704C538.172 36.704 536.775 36.992 535.345 37.568C533.938 38.1227 532.658 38.9227 531.506 39.968C530.354 41.0133 529.404 42.272 528.658 43.744C527.932 45.216 527.57 46.8587 527.57 48.672C527.57 50.336 527.9 51.8827 528.562 53.312C529.223 54.7413 530.098 55.9893 531.186 57.056C532.295 58.1013 533.575 58.9333 535.026 59.552C536.476 60.1493 537.98 60.448 539.538 60.448C540.22 60.448 540.871 60.384 541.49 60.256C542.108 60.1493 542.674 60.032 543.186 59.904C543.719 59.7547 544.188 59.6267 544.594 59.52C544.999 59.392 545.33 59.328 545.586 59.328C545.884 59.328 546.108 59.3813 546.258 59.488C546.407 59.5733 546.535 59.744 546.642 60H547.154V53.216H546.642C546.45 54.0907 546.151 54.9333 545.746 55.744C545.34 56.5547 544.839 57.28 544.242 57.92C543.644 58.5387 542.951 59.04 542.162 59.424C541.394 59.808 540.53 60 539.57 60C538.375 60 537.34 59.8293 536.466 59.488C535.612 59.1467 534.908 58.5493 534.354 57.696C533.82 56.8427 533.426 55.6907 533.17 54.24C532.914 52.7893 532.786 50.9547 532.786 48.736C532.786 47.0507 532.85 45.504 532.978 44.096C533.106 42.6667 533.394 41.44 533.842 40.416C534.311 39.392 534.994 38.592 535.89 38.016C536.786 37.44 538.012 37.152 539.57 37.152C540.722 37.152 541.682 37.3653 542.45 37.792C543.239 38.1973 543.89 38.7307 544.402 39.392C544.935 40.032 545.362 40.7467 545.682 41.536C546.023 42.304 546.311 43.04 546.546 43.744H546.962ZM550.215 37.216V37.664H553.159V59.552H550.215V60H570.663V52.992H570.247C570.034 53.9093 569.725 54.7733 569.319 55.584C568.914 56.3733 568.402 57.0667 567.783 57.664C567.186 58.2613 566.493 58.7307 565.703 59.072C564.914 59.392 564.029 59.552 563.047 59.552H557.799V48H559.943C560.69 48 561.309 48.128 561.799 48.384C562.311 48.64 562.738 48.992 563.079 49.44C563.421 49.8667 563.687 50.368 563.879 50.944C564.093 51.52 564.274 52.1173 564.423 52.736H564.839V42.784H564.423C564.274 43.5093 564.082 44.1707 563.847 44.768C563.613 45.344 563.314 45.8453 562.951 46.272C562.589 46.6773 562.13 46.9973 561.575 47.232C561.042 47.4453 560.381 47.552 559.591 47.552H557.799V37.664H562.887C563.933 37.664 564.818 37.8667 565.543 38.272C566.269 38.656 566.855 39.1147 567.303 39.648C567.773 40.1813 568.135 40.736 568.391 41.312C568.647 41.8667 568.829 42.3253 568.935 42.688H569.351V37.216H550.215Z" fill="white"/>
</svg>
